<svg width="150" height="14" viewBox="0 0 150 14" fill="none" xmlns="http://www.w3.org/2000/svg">
<g clip-path="url(#clip0_2518_10787)">
<path d="M9.17518 0.488046V5.84366H2.54365V0.488046H-0.000244141V13.1952H2.54365V8.06032H9.17518V13.1952H11.6993V0.488046H9.17518ZM23.9362 0.46937L21.222 4.43581L22.6193 6.56965L27.0013 0.579028V0.468409H23.9362V0.46937ZM16.9218 0.46937H13.8923V0.579508L19.0777 7.93297V13.1775H21.6216V7.66193L16.9218 0.46937ZM52.9254 13.1794V10.8186H45.3501V7.95019H52.9254V5.71724H42.824V13.1794H52.9254ZM52.9254 0.470327H42.824V2.79378H52.9254V0.470327ZM64.1686 8.67712C66.7337 8.18581 67.5811 6.42503 67.5811 4.68338C67.5811 2.50359 65.9009 0.46937 62.7226 0.46937C60.5618 0.46937 58.4623 0.454045 56.3009 0.454045V13.1799H58.845V2.70136H62.7217C64.3205 2.70136 65.0321 3.72038 65.0321 4.73654C65.0321 5.75172 64.3415 6.77172 62.7217 6.77172H59.4387L65.3433 13.1809H68.2551V13.0171L64.1686 8.67712ZM80.1898 1.9596V0.46937H70.8002V13.1952H72.497V7.85924H80.1908V6.40538H72.497V1.9596H80.1898ZM92.2166 0.46937V8.11399C92.2166 10.6017 90.4639 11.9822 88.4004 11.9822C86.3209 11.9822 84.5437 10.6549 84.5437 8.13266V0.46937H82.8679V8.13359C82.8679 11.6902 85.5295 13.4356 88.4004 13.4356C91.3327 13.4356 93.8929 11.6561 93.8929 8.13359V0.46937H92.2166ZM98.9213 0.468409H97.7418V13.1794H99.422V3.46515L107.689 13.179H108.847V12.1757L98.9213 0.468409ZM107.188 0.46937V8.38834L108.848 10.3431V0.46889L107.188 0.46937ZM114.001 0.468409H112.825V13.1794H114.5V3.46515L122.772 13.179H123.931V12.1781L114.001 0.468409ZM122.272 0.46937V8.38834L123.932 10.3469V0.46937H122.272ZM137.703 13.1794V11.672H129.587V7.3698H137.703V5.8997H127.91V13.1784L137.703 13.1794ZM137.703 0.470327H127.91V1.92272H137.703V0.470327ZM142.408 11.7079V0.468409H140.711V13.1784H149.75V11.7084L142.408 11.7079ZM35.4923 0.451651C33.3913 0.451651 31.2318 0.46937 29.1302 0.46937V13.1784H31.6752V2.73919H35.4923C38.7308 2.73919 38.7308 7.24198 35.4923 7.24198H33.1599V9.43946H35.4923C42.1437 9.34851 42.105 0.451172 35.4923 0.451172" fill="black"/>
</g>
<defs>
<clipPath id="clip0_2518_10787">
<rect width="150" height="14" fill="white"/>
</clipPath>
</defs>
</svg>