<svg width="694" height="275" viewBox="0 0 694 275" fill="none" xmlns="http://www.w3.org/2000/svg">
<g clip-path="url(#clip0_1132_9049)">
<path d="M62.124 -0.456055C63.1896 -0.605846 64.1248 -0.365311 64.9561 0.238281C65.7686 0.828274 66.4596 1.74716 67.0977 2.91699C68.3696 5.24887 69.5307 8.76802 71.0039 13.2168V13.2178C71.8291 15.7154 72.927 19.0178 73.8594 21.2285C74.9491 19.1507 76.2838 16.063 77.292 13.7207L78.2412 11.5332C79.1532 9.44858 79.9597 7.67343 80.7119 6.20605C81.7105 4.25816 82.6375 2.80157 83.627 1.87598C84.6813 0.881967 86.1797 0.610033 87.5283 1.1377C88.8855 1.66891 89.8062 2.95449 89.8945 4.39648V4.39746C91.4211 30.3468 110.131 52.5197 135.389 58.3213L135.54 58.3604C137.081 58.8001 138.025 60.378 137.67 61.9551C137.302 63.5899 135.661 64.604 134.035 64.2383L134.033 64.2373C108.536 58.3862 89.0964 37.42 84.6797 11.9873C84.0468 13.3827 83.4198 14.8376 82.8633 16.1318V16.1328C80.9687 20.5277 79.5494 23.7474 78.1914 25.8467C76.9145 27.8205 75.6061 28.9345 73.8945 29.0049H73.5439C71.6317 28.9206 70.3165 27.6545 69.123 25.3984C67.9327 23.1481 66.7792 19.7549 65.249 15.1309V15.1299C64.7689 13.6781 64.1913 11.9461 63.6133 10.3213C63.5369 11.4507 63.4765 12.6254 63.4258 13.7344L63.3486 15.5303C63.1409 20.3538 62.9572 23.905 62.4297 26.375C61.901 28.8506 60.9881 30.4172 59.1865 31.0127H59.1855C57.3757 31.6076 55.7058 30.8909 53.8027 29.21C51.9044 27.5332 49.6393 24.7799 46.5957 21.0117C45.5972 19.7755 44.3951 18.2944 43.2383 16.9316C43.7417 18.6433 44.3174 20.4553 44.7988 21.9648C46.2824 26.5888 47.3447 30.0005 47.7051 32.5117C48.0663 35.0292 47.7462 36.8198 46.249 38.0049C44.7593 39.1866 42.9514 39.0845 40.5967 38.1553C38.2478 37.2284 35.1869 35.4138 31.0498 32.9131V32.9121C29.6514 32.0683 27.9667 31.0531 26.375 30.1445C27.4269 31.5926 28.5904 33.1123 29.5547 34.376H29.5537C32.5167 38.25 34.674 41.1201 35.8623 43.375C37.0537 45.6357 37.355 47.4388 36.334 49.0645L36.333 49.0635C35.3288 50.6683 33.5957 51.1733 31.0762 51.083C28.5621 50.9929 25.0847 50.3049 20.3711 49.3301V49.3291C18.7424 48.9949 16.7709 48.5867 14.9355 48.2568C16.401 49.2711 17.9923 50.3172 19.3174 51.1865C23.3154 53.8107 26.3164 55.8197 28.2197 57.583C30.1207 59.3441 31.067 60.9904 30.6396 62.874V62.875C30.2072 64.7637 28.636 65.8347 26.1562 66.5908C23.6738 67.3477 20.096 67.846 15.3564 68.4648C13.7817 68.6692 11.887 68.9154 10.1221 69.1904C11.2895 69.5191 12.5232 69.8431 13.6885 70.1406L15.4912 70.5967L18.7607 71.4336C21.8019 72.2306 24.1625 72.9264 25.8887 73.6885C28.1956 74.707 29.5353 75.9188 29.7393 77.8057L29.7627 78.1592C29.8104 79.9005 28.7609 81.3 26.8311 82.7197C24.7777 84.2303 21.5842 85.8712 17.2266 88.0625C15.8077 88.7749 14.0955 89.6344 12.5176 90.4775C14.3469 90.3555 16.3061 90.177 17.9336 90.0264C22.7448 89.5813 26.2894 89.2836 28.8076 89.4746C31.3321 89.6661 33.0051 90.3633 33.834 92.0752L33.835 92.0762C34.6629 93.7963 34.1694 95.5485 32.7461 97.6572C31.5039 99.4974 29.4774 101.723 26.7441 104.604L25.5293 105.881C24.4318 107.032 23.117 108.41 21.917 109.731C23.5604 109.007 25.2948 108.19 26.7422 107.515C31.1247 105.451 34.3641 103.963 36.8027 103.283C39.2469 102.602 41.0605 102.687 42.4248 104.011C43.79 105.331 43.9291 107.139 43.3242 109.598C42.7208 112.05 41.3338 115.325 39.4141 119.757L39.415 119.758C38.7952 121.198 38.0495 122.918 37.3857 124.555C38.6186 123.343 39.895 122.035 40.9619 120.938L43.3506 118.498C45.5876 116.237 47.3889 114.52 48.9287 113.392C50.9871 111.883 52.7232 111.318 54.4814 112.076C56.2059 112.82 56.9761 114.412 57.2861 116.848C57.5948 119.273 57.4697 122.704 57.2578 127.357C57.1727 129.213 57.0623 131.659 57.0518 133.838C57.0465 134.928 57.0669 135.943 57.126 136.78C57.1804 137.551 57.2657 138.122 57.374 138.46C58.3833 139.361 58.6917 140.861 58.0449 142.115L58.0439 142.117C57.5042 143.156 56.4453 143.756 55.3467 143.756H55.0078L54.9824 143.692C54.627 143.651 54.2739 143.547 53.9404 143.38L53.9336 143.377C52.2083 142.482 51.4519 140.631 51.1465 137.991C50.84 135.342 50.9686 131.721 51.1807 127.057C51.2913 124.631 51.4301 121.43 51.3643 119.173C50.077 120.3 48.4747 121.891 46.9951 123.396L45.2939 125.14C42.0297 128.501 39.4489 131.16 37.2861 132.703C36.2014 133.477 35.1791 134.003 34.1904 134.181C33.179 134.362 32.231 134.173 31.3369 133.576C30.4293 132.97 29.899 132.138 29.6914 131.106C29.4884 130.098 29.5979 128.918 29.9102 127.592C30.5331 124.946 32.0186 121.517 33.835 117.321C34.8608 114.943 36.2209 111.806 36.9883 109.56C34.7603 110.401 31.657 111.862 29.2998 112.963C25.1764 114.902 21.8077 116.489 19.1914 117.194C17.8799 117.548 16.7076 117.694 15.6953 117.526C14.7253 117.365 13.9194 116.917 13.2988 116.136L13.1768 115.975C12.5482 115.102 12.326 114.16 12.4717 113.141C12.6142 112.144 13.104 111.099 13.8398 109.982C15.3072 107.755 17.8756 105.065 21.123 101.661V101.66C22.919 99.7827 25.2845 97.2969 26.791 95.4424C24.4221 95.4782 21.0435 95.7929 18.4766 96.0303L18.4775 96.0312C13.9255 96.4547 10.2059 96.8021 7.49609 96.5742C6.13765 96.46 4.98156 96.1978 4.08301 95.6943C3.16488 95.1799 2.53325 94.4224 2.23145 93.376V93.375C1.93644 92.345 2.04513 91.3873 2.52441 90.4795C2.9932 89.5918 3.80299 88.775 4.86816 87.9736C6.99161 86.376 10.302 84.7144 14.4893 82.6104V82.6094C16.8254 81.4377 19.9025 79.8839 21.9551 78.6406C20.3681 78.109 18.2627 77.5386 16.29 77.0303L13.9961 76.4482C9.54595 75.3221 5.90801 74.405 3.41895 73.2832C2.17118 72.7208 1.16415 72.0867 0.482422 71.3105C-0.214193 70.5175 -0.557875 69.5902 -0.492188 68.5V68.499C-0.426791 67.4368 -0.0073145 66.5745 0.742188 65.8809C1.4754 65.2024 2.50538 64.7029 3.76855 64.3008C6.28637 63.4993 9.93625 63.0265 14.5547 62.4297L16.9121 62.1152C19.002 61.83 21.3164 61.4875 23.041 61.1211C21.6518 60.036 19.7168 58.7182 17.958 57.5508L15.9707 56.2412C12.0756 53.6885 8.99633 51.67 7.08008 49.8496C6.1188 48.9364 5.41012 48.0373 5.04688 47.1064C4.67553 46.1546 4.67548 45.1948 5.08203 44.21C5.49814 43.2005 6.21131 42.5152 7.18359 42.1045C8.13535 41.7025 9.31842 41.5709 10.6865 41.6084C13.4156 41.6833 17.089 42.4445 21.5859 43.376L23.9033 43.8506C25.901 44.2522 28.0474 44.655 29.7109 44.8701C28.4082 42.8593 26.315 40.1217 24.7275 38.0449V38.0459C21.8823 34.3289 19.6322 31.3896 18.4189 29.0264C17.8104 27.841 17.4366 26.7539 17.4014 25.751C17.3654 24.7252 17.6848 23.8158 18.3984 23.0176L18.3994 23.0166C19.1269 22.2066 20.0245 21.7992 21.0742 21.7363C22.1017 21.6749 23.2559 21.944 24.5273 22.4336C27.0635 23.4102 30.2574 25.3452 34.1699 27.7119H34.1709C36.3718 29.0457 39.2763 30.7995 41.3896 31.8643C40.8432 29.5455 39.8006 26.2782 39.0068 23.8008C37.5716 19.322 36.4346 15.7811 36.0859 13.1357C35.9111 11.8089 35.9255 10.6544 36.2324 9.69434C36.5464 8.71244 37.1582 7.9615 38.1055 7.44922C39.0531 6.93677 40.0167 6.83696 41.0107 7.11328C41.9826 7.38347 42.9568 8.00552 43.9717 8.88086C45.9949 10.6259 48.3355 13.5227 51.2949 17.1846C52.9287 19.2044 55.0915 21.874 56.7285 23.6045C57.0179 21.2507 57.1679 17.8411 57.2793 15.2578L57.4287 11.9922C57.5855 8.89015 57.7872 6.29192 58.2324 4.30273C58.53 2.97356 58.9461 1.86468 59.5684 1.0459C60.2044 0.209164 61.0441 -0.307271 62.124 -0.456055Z" fill="#7B907E" stroke="#7B907E"/>
<path d="M71.2495 52.5576C74.1766 50.8634 77.9258 51.8731 79.6118 54.7988H79.6128C81.3079 57.7261 80.2974 61.4754 77.3706 63.1611L77.3716 63.1621C74.4434 64.8574 70.7024 63.8465 69.0083 60.9219C67.3658 58.0859 68.2621 54.477 70.981 52.7217L71.2495 52.5576Z" fill="#7B907E" stroke="#7B907E"/>
<path d="M77.5347 77.3359C78.3488 75.8713 80.1911 75.3424 81.6577 76.1562L81.6587 76.1553C83.3994 77.1155 84.23 79.0612 84.6489 81.7646C85.0697 84.4806 85.0978 88.1256 85.0894 92.6855C85.0894 94.3122 85.0856 96.2733 85.1343 98.0977C85.1724 99.5245 85.2427 100.844 85.3677 101.847C86.2379 101.195 87.3317 100.243 88.4712 99.1914C89.9045 97.8684 91.3835 96.4194 92.5415 95.2871L94.8423 93.04C97.0549 90.901 99.0072 89.115 100.749 87.9268C103.06 86.3494 105.2 85.6936 107.138 86.9492C109.093 88.2177 109.373 90.4601 108.875 93.2451C108.374 96.042 107.048 99.6246 105.481 103.863C104.932 105.348 104.23 107.245 103.62 109.055C103.136 110.487 102.719 111.843 102.475 112.892C103.511 112.575 104.847 112.059 106.255 111.47C108.033 110.726 109.891 109.882 111.347 109.223C115.442 107.368 118.902 105.799 121.641 105.104C124.369 104.411 126.613 104.531 128.011 106.383C129.409 108.235 128.906 110.43 127.49 112.866C126.423 114.701 124.771 116.792 122.785 119.17L120.696 121.645C119.666 122.862 118.35 124.415 117.151 125.917C116.202 127.106 115.341 128.244 114.752 129.15C115.829 129.202 117.251 129.171 118.765 129.098C120.679 129.005 122.703 128.847 124.291 128.724C128.788 128.372 132.589 128.076 135.412 128.356C138.222 128.636 140.299 129.516 140.985 131.737C141.667 133.947 140.45 135.831 138.296 137.629C136.674 138.984 134.417 140.379 131.748 141.93L128.949 143.537C127.553 144.333 125.774 145.35 124.124 146.359C122.815 147.16 121.608 147.945 120.743 148.603C121.731 149.016 123.066 149.471 124.5 149.917C126.315 150.481 128.253 151.024 129.772 151.449H129.771C134.138 152.669 137.83 153.7 140.398 154.939C142.875 156.135 144.508 157.623 144.5 159.837L144.494 160.054C144.375 162.35 142.594 163.692 139.97 164.637C137.335 165.585 133.623 166.217 129.236 166.967L129.237 166.968C127.623 167.244 125.562 167.596 123.634 167.985C122.097 168.296 120.672 168.626 119.632 168.954C120.426 169.702 121.564 170.623 122.812 171.574C124.376 172.767 126.077 173.985 127.409 174.938C131.029 177.526 134.094 179.713 136.051 181.716C137.939 183.647 138.954 185.571 138.206 187.614L138.127 187.812C137.22 189.969 135.054 190.638 132.216 190.633C130.079 190.629 127.423 190.244 124.347 189.712L121.135 189.14C118.343 188.635 114.233 187.92 111.771 187.767C112.263 188.732 113.004 189.96 113.831 191.247C114.876 192.876 116.035 194.569 116.942 195.893C119.47 199.589 121.611 202.715 122.769 205.284C123.922 207.843 124.196 210.07 122.62 211.765V211.766C121.034 213.464 118.782 213.348 116.133 212.373C113.473 211.394 110.182 209.469 106.291 207.195C104.916 206.391 103.164 205.368 101.482 204.45C100.151 203.724 98.8839 203.077 97.8911 202.654C98.0261 203.727 98.3031 205.129 98.6382 206.613C98.8499 207.551 99.0815 208.513 99.311 209.434L99.9673 212.005V212.006C101.085 216.363 102.034 220.048 102.247 222.87C102.458 225.679 101.955 227.873 99.8901 228.931H99.8892C97.8203 229.987 95.7473 229.115 93.5952 227.302C91.4342 225.481 89.0074 222.56 86.1362 219.109H86.1353C85.1142 217.88 83.8091 216.312 82.5337 214.868C81.5229 213.724 80.5448 212.677 79.7505 211.938C79.5127 212.987 79.2971 214.387 79.1079 215.886C78.8687 217.78 78.6742 219.793 78.521 221.372C78.0848 225.878 77.7157 229.686 76.9448 232.423C76.1771 235.148 74.9419 237.041 72.6216 237.317L72.6206 237.316C70.2221 237.61 68.4257 235.978 66.7935 233.182C65.1496 230.365 63.5435 226.154 61.5796 220.844L60.8726 218.942C60.2257 217.217 59.536 215.433 58.9731 214.169C55.9633 215.79 51.0136 218.751 44.48 224.159L44.4731 224.164L44.4673 224.169C38.0499 229.134 34.4814 236.546 34.5981 244.562C34.7983 258.48 46.3348 269.64 60.2046 269.439L60.6626 269.429C65.387 269.279 69.9388 267.82 73.8569 265.195L73.8589 265.193C75.2508 264.269 77.1359 264.633 78.0649 266.031C78.9895 267.423 78.6267 269.308 77.228 270.237L77.2271 270.236C72.2053 273.589 66.3539 275.414 60.2954 275.5H59.7563L59.7017 275.481C42.685 275.436 28.7371 261.712 28.4868 244.627C28.34 234.694 32.7707 225.509 40.6353 219.408C49.4094 212.147 55.5862 209.014 58.2241 207.67L58.3247 207.616L58.3354 207.61C59.149 207.199 60.0703 207.13 60.9419 207.417L61.1147 207.479L61.1177 207.48C62.2751 207.936 63.1039 208.928 63.98 210.656C64.856 212.384 65.83 214.957 67.2212 218.71C68.3024 221.627 70.0016 226.208 71.4302 229.089C71.8686 226.62 72.2036 223.189 72.439 220.757L72.6069 219.063C72.9942 215.225 73.3652 212.185 73.9702 209.938C74.66 207.378 75.7004 205.672 77.5942 205.087L77.5952 205.086C79.5019 204.501 81.3345 205.329 83.3589 207.068C85.3878 208.812 87.7472 211.592 90.7495 215.204L92.2065 216.948C93.3727 218.334 94.6745 219.842 95.8237 221.058C95.3687 218.672 94.6015 215.67 94.0405 213.488C92.8744 208.947 92.0015 205.411 91.7739 202.748C91.5469 200.092 91.9452 198.124 93.5337 196.924L93.5347 196.923C95.1228 195.728 97.1201 195.883 99.6069 196.825C102.1 197.77 105.255 199.573 109.296 201.935L111.27 203.082C112.849 203.992 114.598 204.972 116.105 205.729C114.87 203.657 113.147 201.127 111.889 199.289C109.23 195.401 107.195 192.363 106.069 189.93C104.946 187.502 104.65 185.509 105.741 183.833C106.815 182.18 108.664 181.628 111.286 181.656C113.905 181.684 117.466 182.294 122.172 183.146H122.171C124.413 183.549 127.51 184.103 129.951 184.385C128.704 183.374 127.175 182.242 125.727 181.197L123.851 179.852C119.992 177.095 117.019 174.926 115.114 173.013C113.213 171.103 112.247 169.32 112.699 167.357C113.15 165.395 114.797 164.212 117.34 163.323C119.889 162.433 123.51 161.778 128.183 160.98C130.465 160.589 133.387 160.089 135.661 159.556C134.055 158.992 132.108 158.408 130.333 157.901L128.116 157.277C123.511 155.989 120.039 154.985 117.669 153.869C115.298 152.753 113.875 151.45 113.634 149.492L113.616 149.307C113.461 147.403 114.591 145.791 116.597 144.149C118.673 142.45 121.83 140.604 125.917 138.264C127.848 137.157 130.508 135.633 132.524 134.306C130.086 134.34 126.987 134.576 124.744 134.756H124.743C120.078 135.12 116.453 135.368 113.797 135.132C111.231 134.903 109.4 134.209 108.465 132.556L108.377 132.393C107.473 130.618 107.97 128.674 109.332 126.383C110.696 124.086 113.022 121.286 116.054 117.707C117.508 115.99 119.507 113.624 120.956 111.679C118.69 112.539 115.876 113.808 113.835 114.734H113.834C109.556 116.672 106.218 118.143 103.631 118.827C101.051 119.509 99.0413 119.455 97.5854 118.098C96.1343 116.745 95.9407 114.756 96.437 112.15C96.9345 109.539 98.1601 106.128 99.7798 101.748C100.563 99.6273 101.645 96.7023 102.344 94.3623C100.533 95.9331 98.3612 98.0616 96.7798 99.6084L96.7788 99.6074C93.4076 102.915 90.7646 105.456 88.5571 106.993C86.3546 108.527 84.4379 109.167 82.5913 108.386V108.387C80.7785 107.62 79.9116 105.859 79.4771 103.302C79.0421 100.742 79.0115 97.2123 79.02 92.668L79.019 91.1055C79.0156 89.4553 79 87.5844 78.9263 85.8838C78.8771 84.7498 78.8026 83.7012 78.6909 82.8496C78.5856 82.0464 78.4517 81.4849 78.312 81.1836C77.1672 80.2793 76.802 78.6526 77.5347 77.3359Z" fill="#7B907E" stroke="#7B907E"/>
<mask id="path-4-outside-1_1132_9049" maskUnits="userSpaceOnUse" x="203" y="83.5801" width="492" height="54" fill="black">
<rect fill="white" x="203" y="83.5801" width="492" height="54"/>
<path d="M204 88.9001V132.34C204 134.12 205.56 135.53 207.34 135.53C209.12 135.53 210.68 134.11 210.68 132.34V113.53H230.7L246.53 134.26C247.17 135.04 248.16 135.54 249.16 135.54C250.94 135.54 252.5 134.12 252.5 132.35C252.5 131.78 252.29 131.07 251.79 130.44L238.52 113.4C244.84 112.97 254.56 109.92 254.56 99.7001C254.56 90.4701 247.53 85.79 234.05 85.79H207.29C205.3 85.79 204.02 87 204.02 88.91H204V88.9001ZM232.6 107.85H210.67V91.4501H232.6C241.62 91.4501 248.15 92.66 248.15 99.61C248.15 106.56 241.62 107.84 232.6 107.84V107.85ZM271.62 88.6901V132.35C271.62 134.13 273.18 135.54 274.96 135.54C276.74 135.54 278.3 134.12 278.3 132.35V88.6901C278.3 86.9901 276.74 85.5701 274.96 85.5701C273.18 85.5701 271.62 86.9901 271.62 88.6901ZM291.32 88.61C291.32 89.11 291.46 89.61 291.68 90.1L314.96 132.98C315.81 134.54 317.52 135.53 319.43 135.53C321.34 135.53 323.05 134.54 323.9 132.98L347.25 90.0301C347.46 89.6701 347.53 89.18 347.53 88.61C347.53 86.91 346.04 85.5601 344.26 85.5601C342.98 85.5601 341.92 86.2001 341.35 87.1901L319.42 128.15L297.56 87.2601C296.99 86.1901 295.86 85.5601 294.58 85.5601C292.81 85.5601 291.31 86.91 291.31 88.61H291.32ZM360.73 88.9001V132.13C360.73 134.12 362.01 135.25 364 135.25H405.31C406.94 135.25 408.29 133.97 408.29 132.41C408.29 130.85 406.94 129.57 405.31 129.57H367.4V112.39H397.93C399.56 112.39 400.91 111.11 400.91 109.55C400.91 107.99 399.56 106.71 397.93 106.71H367.4V91.4501H404.45C406.08 91.4501 407.43 90.17 407.43 88.61C407.43 87.05 406.08 85.7701 404.45 85.7701H363.99C362 85.7701 360.72 86.9801 360.72 88.8901H360.73V88.9001ZM421.34 88.9001V132.34C421.34 134.12 422.9 135.53 424.68 135.53C426.46 135.53 428.02 134.11 428.02 132.34V113.53H448.04L463.87 134.26C464.51 135.04 465.5 135.54 466.49 135.54C468.27 135.54 469.83 134.12 469.83 132.35C469.83 131.78 469.62 131.07 469.12 130.44L455.85 113.4C462.17 112.97 471.89 109.92 471.89 99.7001C471.89 90.4701 464.86 85.79 451.38 85.79H424.62C422.63 85.79 421.35 87 421.35 88.91L421.34 88.9001ZM449.95 107.85H428.02V91.4501H449.95C458.97 91.4501 465.5 92.66 465.5 99.61C465.5 106.56 458.97 107.84 449.95 107.84V107.85ZM485.5 124.96C485.5 125.74 485.78 126.45 486.42 127.16C490.96 131.56 497.71 136.46 512.12 136.46C529.72 136.46 538.24 129.5 538.24 121.2C538.24 99.0501 493.24 113.11 493.24 98.5601C493.24 93.0201 499.41 90.04 510.7 90.04C520.43 90.04 525.68 92.9501 528.87 95.6501C529.72 96.4301 530.29 97.4301 531.71 97.6401C531.92 97.7101 532.14 97.7101 532.35 97.7101C534.13 97.7101 535.54 96.43 535.54 94.73C535.54 93.88 535.18 93.1001 534.62 92.5301C530.22 88.3401 522.34 84.5801 510.84 84.5801C495.08 84.5801 486.42 89.8301 486.42 99.4901C486.42 119.65 531.43 106.59 531.43 121.21C531.43 128.73 520.78 130.79 512.83 130.79C500.12 130.79 494.58 126.67 491.25 122.98C490.68 122.34 489.76 121.91 488.77 121.91C486.99 121.91 485.5 123.26 485.5 124.96ZM553.73 88.6901V132.35C553.73 134.13 555.29 135.54 557.07 135.54C558.85 135.54 560.41 134.12 560.41 132.35V88.6901C560.41 86.9901 558.85 85.5701 557.07 85.5701C555.29 85.5701 553.73 86.9901 553.73 88.6901ZM579.23 88.9001V132.13C579.23 134.12 580.51 135.25 582.5 135.25H602.94C616.57 135.25 632.76 130.21 632.76 110.05C632.76 94.93 622.32 85.7701 604.93 85.7701H582.5C580.51 85.7701 579.23 86.9801 579.23 88.8901V88.9001ZM603.93 129.57H585.9V91.4501H604.92C615.36 91.4501 625.93 95.64 625.93 109.91C625.93 128.93 609.04 129.57 603.93 129.57ZM646.42 88.9001V132.13C646.42 134.12 647.7 135.25 649.68 135.25H690.99C692.62 135.25 693.97 133.97 693.97 132.41C693.97 130.85 692.62 129.57 690.99 129.57H653.09V112.39H683.61C685.24 112.39 686.59 111.11 686.59 109.55C686.59 107.99 685.24 106.71 683.61 106.71H653.09V91.4501H690.14C691.77 91.4501 693.12 90.17 693.12 88.61C693.12 87.05 691.77 85.7701 690.14 85.7701H649.68C647.69 85.7701 646.42 86.9801 646.42 88.8901V88.9001Z"/>
</mask>
<path d="M204 88.9001V132.34C204 134.12 205.56 135.53 207.34 135.53C209.12 135.53 210.68 134.11 210.68 132.34V113.53H230.7L246.53 134.26C247.17 135.04 248.16 135.54 249.16 135.54C250.94 135.54 252.5 134.12 252.5 132.35C252.5 131.78 252.29 131.07 251.79 130.44L238.52 113.4C244.84 112.97 254.56 109.92 254.56 99.7001C254.56 90.4701 247.53 85.79 234.05 85.79H207.29C205.3 85.79 204.02 87 204.02 88.91H204V88.9001ZM232.6 107.85H210.67V91.4501H232.6C241.62 91.4501 248.15 92.66 248.15 99.61C248.15 106.56 241.62 107.84 232.6 107.84V107.85ZM271.62 88.6901V132.35C271.62 134.13 273.18 135.54 274.96 135.54C276.74 135.54 278.3 134.12 278.3 132.35V88.6901C278.3 86.9901 276.74 85.5701 274.96 85.5701C273.18 85.5701 271.62 86.9901 271.62 88.6901ZM291.32 88.61C291.32 89.11 291.46 89.61 291.68 90.1L314.96 132.98C315.81 134.54 317.52 135.53 319.43 135.53C321.34 135.53 323.05 134.54 323.9 132.98L347.25 90.0301C347.46 89.6701 347.53 89.18 347.53 88.61C347.53 86.91 346.04 85.5601 344.26 85.5601C342.98 85.5601 341.92 86.2001 341.35 87.1901L319.42 128.15L297.56 87.2601C296.99 86.1901 295.86 85.5601 294.58 85.5601C292.81 85.5601 291.31 86.91 291.31 88.61H291.32ZM360.73 88.9001V132.13C360.73 134.12 362.01 135.25 364 135.25H405.31C406.94 135.25 408.29 133.97 408.29 132.41C408.29 130.85 406.94 129.57 405.31 129.57H367.4V112.39H397.93C399.56 112.39 400.91 111.11 400.91 109.55C400.91 107.99 399.56 106.71 397.93 106.71H367.4V91.4501H404.45C406.08 91.4501 407.43 90.17 407.43 88.61C407.43 87.05 406.08 85.7701 404.45 85.7701H363.99C362 85.7701 360.72 86.9801 360.72 88.8901H360.73V88.9001ZM421.34 88.9001V132.34C421.34 134.12 422.9 135.53 424.68 135.53C426.46 135.53 428.02 134.11 428.02 132.34V113.53H448.04L463.87 134.26C464.51 135.04 465.5 135.54 466.49 135.54C468.27 135.54 469.83 134.12 469.83 132.35C469.83 131.78 469.62 131.07 469.12 130.44L455.85 113.4C462.17 112.97 471.89 109.92 471.89 99.7001C471.89 90.4701 464.86 85.79 451.38 85.79H424.62C422.63 85.79 421.35 87 421.35 88.91L421.34 88.9001ZM449.95 107.85H428.02V91.4501H449.95C458.97 91.4501 465.5 92.66 465.5 99.61C465.5 106.56 458.97 107.84 449.95 107.84V107.85ZM485.5 124.96C485.5 125.74 485.78 126.45 486.42 127.16C490.96 131.56 497.71 136.46 512.12 136.46C529.72 136.46 538.24 129.5 538.24 121.2C538.24 99.0501 493.24 113.11 493.24 98.5601C493.24 93.0201 499.41 90.04 510.7 90.04C520.43 90.04 525.68 92.9501 528.87 95.6501C529.72 96.4301 530.29 97.4301 531.71 97.6401C531.92 97.7101 532.14 97.7101 532.35 97.7101C534.13 97.7101 535.54 96.43 535.54 94.73C535.54 93.88 535.18 93.1001 534.62 92.5301C530.22 88.3401 522.34 84.5801 510.84 84.5801C495.08 84.5801 486.42 89.8301 486.42 99.4901C486.42 119.65 531.43 106.59 531.43 121.21C531.43 128.73 520.78 130.79 512.83 130.79C500.12 130.79 494.58 126.67 491.25 122.98C490.68 122.34 489.76 121.91 488.77 121.91C486.99 121.91 485.5 123.26 485.5 124.96ZM553.73 88.6901V132.35C553.73 134.13 555.29 135.54 557.07 135.54C558.85 135.54 560.41 134.12 560.41 132.35V88.6901C560.41 86.9901 558.85 85.5701 557.07 85.5701C555.29 85.5701 553.73 86.9901 553.73 88.6901ZM579.23 88.9001V132.13C579.23 134.12 580.51 135.25 582.5 135.25H602.94C616.57 135.25 632.76 130.21 632.76 110.05C632.76 94.93 622.32 85.7701 604.93 85.7701H582.5C580.51 85.7701 579.23 86.9801 579.23 88.8901V88.9001ZM603.93 129.57H585.9V91.4501H604.92C615.36 91.4501 625.93 95.64 625.93 109.91C625.93 128.93 609.04 129.57 603.93 129.57ZM646.42 88.9001V132.13C646.42 134.12 647.7 135.25 649.68 135.25H690.99C692.62 135.25 693.97 133.97 693.97 132.41C693.97 130.85 692.62 129.57 690.99 129.57H653.09V112.39H683.61C685.24 112.39 686.59 111.11 686.59 109.55C686.59 107.99 685.24 106.71 683.61 106.71H653.09V91.4501H690.14C691.77 91.4501 693.12 90.17 693.12 88.61C693.12 87.05 691.77 85.7701 690.14 85.7701H649.68C647.69 85.7701 646.42 86.9801 646.42 88.8901V88.9001Z" fill="#7B907E"/>
<path d="M204 88.9001V132.34C204 134.12 205.56 135.53 207.34 135.53C209.12 135.53 210.68 134.11 210.68 132.34V113.53H230.7L246.53 134.26C247.17 135.04 248.16 135.54 249.16 135.54C250.94 135.54 252.5 134.12 252.5 132.35C252.5 131.78 252.29 131.07 251.79 130.44L238.52 113.4C244.84 112.97 254.56 109.92 254.56 99.7001C254.56 90.4701 247.53 85.79 234.05 85.79H207.29C205.3 85.79 204.02 87 204.02 88.91H204V88.9001ZM232.6 107.85H210.67V91.4501H232.6C241.62 91.4501 248.15 92.66 248.15 99.61C248.15 106.56 241.62 107.84 232.6 107.84V107.85ZM271.62 88.6901V132.35C271.62 134.13 273.18 135.54 274.96 135.54C276.74 135.54 278.3 134.12 278.3 132.35V88.6901C278.3 86.9901 276.74 85.5701 274.96 85.5701C273.18 85.5701 271.62 86.9901 271.62 88.6901ZM291.32 88.61C291.32 89.11 291.46 89.61 291.68 90.1L314.96 132.98C315.81 134.54 317.52 135.53 319.43 135.53C321.34 135.53 323.05 134.54 323.9 132.98L347.25 90.0301C347.46 89.6701 347.53 89.18 347.53 88.61C347.53 86.91 346.04 85.5601 344.26 85.5601C342.98 85.5601 341.92 86.2001 341.35 87.1901L319.42 128.15L297.56 87.2601C296.99 86.1901 295.86 85.5601 294.58 85.5601C292.81 85.5601 291.31 86.91 291.31 88.61H291.32ZM360.73 88.9001V132.13C360.73 134.12 362.01 135.25 364 135.25H405.31C406.94 135.25 408.29 133.97 408.29 132.41C408.29 130.85 406.94 129.57 405.31 129.57H367.4V112.39H397.93C399.56 112.39 400.91 111.11 400.91 109.55C400.91 107.99 399.56 106.71 397.93 106.71H367.4V91.4501H404.45C406.08 91.4501 407.43 90.17 407.43 88.61C407.43 87.05 406.08 85.7701 404.45 85.7701H363.99C362 85.7701 360.72 86.9801 360.72 88.8901H360.73V88.9001ZM421.34 88.9001V132.34C421.34 134.12 422.9 135.53 424.68 135.53C426.46 135.53 428.02 134.11 428.02 132.34V113.53H448.04L463.87 134.26C464.51 135.04 465.5 135.54 466.49 135.54C468.27 135.54 469.83 134.12 469.83 132.35C469.83 131.78 469.62 131.07 469.12 130.44L455.85 113.4C462.17 112.97 471.89 109.92 471.89 99.7001C471.89 90.4701 464.86 85.79 451.38 85.79H424.62C422.63 85.79 421.35 87 421.35 88.91L421.34 88.9001ZM449.95 107.85H428.02V91.4501H449.95C458.97 91.4501 465.5 92.66 465.5 99.61C465.5 106.56 458.97 107.84 449.95 107.84V107.85ZM485.5 124.96C485.5 125.74 485.78 126.45 486.42 127.16C490.96 131.56 497.71 136.46 512.12 136.46C529.72 136.46 538.24 129.5 538.24 121.2C538.24 99.0501 493.24 113.11 493.24 98.5601C493.24 93.0201 499.41 90.04 510.7 90.04C520.43 90.04 525.68 92.9501 528.87 95.6501C529.72 96.4301 530.29 97.4301 531.71 97.6401C531.92 97.7101 532.14 97.7101 532.35 97.7101C534.13 97.7101 535.54 96.43 535.54 94.73C535.54 93.88 535.18 93.1001 534.62 92.5301C530.22 88.3401 522.34 84.5801 510.84 84.5801C495.08 84.5801 486.42 89.8301 486.42 99.4901C486.42 119.65 531.43 106.59 531.43 121.21C531.43 128.73 520.78 130.79 512.83 130.79C500.12 130.79 494.58 126.67 491.25 122.98C490.68 122.34 489.76 121.91 488.77 121.91C486.99 121.91 485.5 123.26 485.5 124.96ZM553.73 88.6901V132.35C553.73 134.13 555.29 135.54 557.07 135.54C558.85 135.54 560.41 134.12 560.41 132.35V88.6901C560.41 86.9901 558.85 85.5701 557.07 85.5701C555.29 85.5701 553.73 86.9901 553.73 88.6901ZM579.23 88.9001V132.13C579.23 134.12 580.51 135.25 582.5 135.25H602.94C616.57 135.25 632.76 130.21 632.76 110.05C632.76 94.93 622.32 85.7701 604.93 85.7701H582.5C580.51 85.7701 579.23 86.9801 579.23 88.8901V88.9001ZM603.93 129.57H585.9V91.4501H604.92C615.36 91.4501 625.93 95.64 625.93 109.91C625.93 128.93 609.04 129.57 603.93 129.57ZM646.42 88.9001V132.13C646.42 134.12 647.7 135.25 649.68 135.25H690.99C692.62 135.25 693.97 133.97 693.97 132.41C693.97 130.85 692.62 129.57 690.99 129.57H653.09V112.39H683.61C685.24 112.39 686.59 111.11 686.59 109.55C686.59 107.99 685.24 106.71 683.61 106.71H653.09V91.4501H690.14C691.77 91.4501 693.12 90.17 693.12 88.61C693.12 87.05 691.77 85.7701 690.14 85.7701H649.68C647.69 85.7701 646.42 86.9801 646.42 88.8901V88.9001Z" stroke="#7B907E" stroke-width="2" stroke-linejoin="round" mask="url(#path-4-outside-1_1132_9049)"/>
<mask id="path-5-outside-2_1132_9049" maskUnits="userSpaceOnUse" x="252.78" y="165.46" width="393" height="26" fill="black">
<rect fill="white" x="252.78" y="165.46" width="393" height="26"/>
<path d="M253.78 168.37V188.42C253.78 189.34 254.37 189.86 255.29 189.86H274.42C275.17 189.86 275.8 189.27 275.8 188.55C275.8 187.83 275.18 187.24 274.42 187.24H256.86V168.37C256.86 167.58 256.14 166.93 255.32 166.93C254.5 166.93 253.78 167.59 253.78 168.37ZM305.49 180.46V168.37C305.49 167.58 304.77 166.93 303.95 166.93C303.13 166.93 302.41 167.59 302.41 168.37V180.46C302.41 185.37 299.23 187.93 293.14 187.93C287.05 187.93 283.87 185.37 283.87 180.46V168.37C283.87 167.58 283.15 166.93 282.33 166.93C281.51 166.93 280.79 167.59 280.79 168.37V180.46C280.79 188.72 287.6 190.42 293.14 190.42C298.68 190.42 305.49 188.71 305.49 180.46ZM313.36 169.32L321.85 178.03L312.45 187.53C312.16 187.86 312.02 188.19 312.02 188.55C312.02 189.37 312.71 189.99 313.53 189.99C313.99 189.99 314.38 189.83 314.64 189.5L323.94 180.06L333.08 189.5C333.37 189.83 333.74 189.99 334.16 189.99C334.98 189.99 335.67 189.37 335.67 188.55C335.67 188.16 335.54 187.86 335.28 187.6L325.94 178L334.49 169.32C334.75 169.09 334.88 168.73 334.88 168.34C334.88 167.56 334.19 166.93 333.37 166.93C332.91 166.93 332.55 167.09 332.29 167.39L323.87 176.01L315.55 167.39C315.26 167.1 314.89 166.93 314.44 166.93C313.65 166.93 312.97 167.55 312.97 168.34C312.97 168.74 313.1 169.09 313.36 169.32ZM366.94 180.46V168.37C366.94 167.58 366.22 166.93 365.4 166.93C364.58 166.93 363.86 167.59 363.86 168.37V180.46C363.86 185.37 360.68 187.93 354.59 187.93C348.5 187.93 345.32 185.37 345.32 180.46V168.37C345.32 167.58 344.6 166.93 343.78 166.93C342.96 166.93 342.24 167.59 342.24 168.37V180.46C342.24 188.72 349.05 190.42 354.59 190.42C360.13 190.42 366.94 188.71 366.94 180.46ZM375.94 168.47V188.52C375.94 189.34 376.66 189.99 377.48 189.99C378.3 189.99 379.02 189.34 379.02 188.52V179.84H388.26L395.56 189.41C395.86 189.77 396.31 190 396.77 190C397.59 190 398.31 189.35 398.31 188.53C398.31 188.27 398.21 187.94 397.98 187.65L391.85 179.79C394.77 179.59 399.25 178.18 399.25 173.47C399.25 169.21 396.01 167.05 389.78 167.05H377.43C376.51 167.05 375.92 167.61 375.92 168.49L375.94 168.47ZM389.14 177.22H379.01V169.65H389.14C393.3 169.65 396.31 170.21 396.31 173.42C396.31 176.63 393.3 177.22 389.14 177.22ZM406.01 169.32L416.33 180.66V188.52C416.33 189.34 417.05 189.99 417.87 189.99C418.69 189.99 419.41 189.34 419.41 188.52V180.66L429.73 169.32C429.99 169.03 430.12 168.66 430.12 168.34C430.12 167.56 429.4 166.93 428.58 166.93C428.06 166.93 427.66 167.09 427.43 167.42L417.86 178.07L408.29 167.42C408.06 167.09 407.67 166.93 407.14 166.93C406.32 166.93 405.6 167.55 405.6 168.34C405.6 168.67 405.73 169.03 405.99 169.32H406.01ZM476.74 182.75C476.25 182.75 475.79 183.01 475.46 183.41C473.4 186.36 470.28 187.8 466.16 187.8C459.48 187.8 455.35 184.36 455.35 178.85C455.35 172.49 459.08 168.99 465.9 168.99C470.35 168.99 473.5 170.46 475.24 173.28C475.5 173.71 475.96 173.97 476.52 173.97C477.31 173.97 477.96 173.31 477.96 172.56C477.96 172.3 477.89 172.04 477.73 171.81C475.24 168.01 470.49 166.47 465.87 166.47C457.39 166.47 452.21 171.03 452.21 178.49C452.21 185.11 456.63 190.42 465.91 190.42C471.19 190.42 474.98 188.85 477.54 185.67C477.93 185.15 478.26 184.36 478.26 184.23C478.26 183.44 477.6 182.75 476.75 182.75H476.74ZM485.74 168.47V188.52C485.74 189.34 486.46 189.99 487.28 189.99C488.1 189.99 488.82 189.34 488.82 188.52V179.84H498.06L505.36 189.41C505.65 189.77 506.11 190 506.57 190C507.39 190 508.11 189.35 508.11 188.53C508.11 188.27 508.01 187.94 507.78 187.65L501.65 179.79C504.57 179.59 509.05 178.18 509.05 173.47C509.05 169.21 505.81 167.05 499.58 167.05H487.23C486.31 167.05 485.72 167.61 485.72 168.49L485.74 168.47ZM498.94 177.22H488.82V169.65H498.94C503.1 169.65 506.12 170.21 506.12 173.42C506.12 176.63 503.11 177.22 498.94 177.22ZM541.69 180.46V168.37C541.69 167.58 540.97 166.93 540.15 166.93C539.33 166.93 538.61 167.59 538.61 168.37V180.46C538.61 185.37 535.43 187.93 529.34 187.93C523.25 187.93 520.07 185.37 520.07 180.46V168.37C520.07 167.58 519.35 166.93 518.53 166.93C517.71 166.93 516.99 167.59 516.99 168.37V180.46C516.99 188.72 523.8 190.42 529.34 190.42C534.88 190.42 541.69 188.71 541.69 180.46ZM550.68 168.37V188.52C550.68 189.34 551.4 189.99 552.22 189.99C553.04 189.99 553.76 189.34 553.76 188.52V168.37C553.76 167.58 553.04 166.93 552.22 166.93C551.4 166.93 550.68 167.59 550.68 168.37ZM561.27 185.11C561.27 185.47 561.4 185.8 561.7 186.13C563.8 188.16 566.91 190.42 573.56 190.42C581.69 190.42 585.62 187.21 585.62 183.37C585.62 173.15 564.85 179.64 564.85 172.92C564.85 170.37 567.7 168.99 572.91 168.99C577.4 168.99 579.82 170.33 581.3 171.58C581.69 171.94 581.96 172.4 582.61 172.5C582.71 172.53 582.81 172.53 582.9 172.53C583.72 172.53 584.37 171.94 584.37 171.15C584.37 170.76 584.21 170.4 583.94 170.13C581.91 168.2 578.27 166.46 572.96 166.46C565.69 166.46 561.69 168.89 561.69 173.34C561.69 182.64 582.46 176.62 582.46 183.37C582.46 186.84 577.55 187.79 573.88 187.79C568.01 187.79 565.46 185.89 563.92 184.18C563.66 183.88 563.23 183.69 562.77 183.69C561.95 183.69 561.26 184.31 561.26 185.1L561.27 185.11ZM593.11 168.47V188.42C593.11 189.34 593.7 189.86 594.62 189.86H613.69C614.44 189.86 615.06 189.27 615.06 188.55C615.06 187.83 614.44 187.24 613.69 187.24H596.2V179.31H610.29C611.04 179.31 611.67 178.72 611.67 178C611.67 177.28 611.05 176.69 610.29 176.69H596.2V169.65H613.3C614.05 169.65 614.67 169.06 614.67 168.34C614.67 167.62 614.05 167.03 613.3 167.03H594.63C593.71 167.03 593.12 167.59 593.12 168.47H593.11ZM619.84 185.11C619.84 185.47 619.97 185.8 620.27 186.13C622.37 188.16 625.48 190.42 632.13 190.42C640.26 190.42 644.19 187.21 644.19 183.37C644.19 173.15 623.42 179.64 623.42 172.92C623.42 170.37 626.27 168.99 631.48 168.99C635.97 168.99 638.39 170.33 639.87 171.58C640.27 171.94 640.53 172.4 641.18 172.5C641.28 172.53 641.38 172.53 641.48 172.53C642.3 172.53 642.95 171.94 642.95 171.15C642.95 170.76 642.79 170.4 642.53 170.13C640.5 168.2 636.86 166.46 631.55 166.46C624.28 166.46 620.28 168.89 620.28 173.34C620.28 182.64 641.05 176.62 641.05 183.37C641.05 186.84 636.14 187.79 632.47 187.79C626.6 187.79 624.05 185.89 622.51 184.18C622.25 183.88 621.82 183.69 621.36 183.69C620.54 183.69 619.85 184.31 619.85 185.1L619.84 185.11Z"/>
</mask>
<path d="M253.78 168.37V188.42C253.78 189.34 254.37 189.86 255.29 189.86H274.42C275.17 189.86 275.8 189.27 275.8 188.55C275.8 187.83 275.18 187.24 274.42 187.24H256.86V168.37C256.86 167.58 256.14 166.93 255.32 166.93C254.5 166.93 253.78 167.59 253.78 168.37ZM305.49 180.46V168.37C305.49 167.58 304.77 166.93 303.95 166.93C303.13 166.93 302.41 167.59 302.41 168.37V180.46C302.41 185.37 299.23 187.93 293.14 187.93C287.05 187.93 283.87 185.37 283.87 180.46V168.37C283.87 167.58 283.15 166.93 282.33 166.93C281.51 166.93 280.79 167.59 280.79 168.37V180.46C280.79 188.72 287.6 190.42 293.14 190.42C298.68 190.42 305.49 188.71 305.49 180.46ZM313.36 169.32L321.85 178.03L312.45 187.53C312.16 187.86 312.02 188.19 312.02 188.55C312.02 189.37 312.71 189.99 313.53 189.99C313.99 189.99 314.38 189.83 314.64 189.5L323.94 180.06L333.08 189.5C333.37 189.83 333.74 189.99 334.16 189.99C334.98 189.99 335.67 189.37 335.67 188.55C335.67 188.16 335.54 187.86 335.28 187.6L325.94 178L334.49 169.32C334.75 169.09 334.88 168.73 334.88 168.34C334.88 167.56 334.19 166.93 333.37 166.93C332.91 166.93 332.55 167.09 332.29 167.39L323.87 176.01L315.55 167.39C315.26 167.1 314.89 166.93 314.44 166.93C313.65 166.93 312.97 167.55 312.97 168.34C312.97 168.74 313.1 169.09 313.36 169.32ZM366.94 180.46V168.37C366.94 167.58 366.22 166.93 365.4 166.93C364.58 166.93 363.86 167.59 363.86 168.37V180.46C363.86 185.37 360.68 187.93 354.59 187.93C348.5 187.93 345.32 185.37 345.32 180.46V168.37C345.32 167.58 344.6 166.93 343.78 166.93C342.96 166.93 342.24 167.59 342.24 168.37V180.46C342.24 188.72 349.05 190.42 354.59 190.42C360.13 190.42 366.94 188.71 366.94 180.46ZM375.94 168.47V188.52C375.94 189.34 376.66 189.99 377.48 189.99C378.3 189.99 379.02 189.34 379.02 188.52V179.84H388.26L395.56 189.41C395.86 189.77 396.31 190 396.77 190C397.59 190 398.31 189.35 398.31 188.53C398.31 188.27 398.21 187.94 397.98 187.65L391.85 179.79C394.77 179.59 399.25 178.18 399.25 173.47C399.25 169.21 396.01 167.05 389.78 167.05H377.43C376.51 167.05 375.92 167.61 375.92 168.49L375.94 168.47ZM389.14 177.22H379.01V169.65H389.14C393.3 169.65 396.31 170.21 396.31 173.42C396.31 176.63 393.3 177.22 389.14 177.22ZM406.01 169.32L416.33 180.66V188.52C416.33 189.34 417.05 189.99 417.87 189.99C418.69 189.99 419.41 189.34 419.41 188.52V180.66L429.73 169.32C429.99 169.03 430.12 168.66 430.12 168.34C430.12 167.56 429.4 166.93 428.58 166.93C428.06 166.93 427.66 167.09 427.43 167.42L417.86 178.07L408.29 167.42C408.06 167.09 407.67 166.93 407.14 166.93C406.32 166.93 405.6 167.55 405.6 168.34C405.6 168.67 405.73 169.03 405.99 169.32H406.01ZM476.74 182.75C476.25 182.75 475.79 183.01 475.46 183.41C473.4 186.36 470.28 187.8 466.16 187.8C459.48 187.8 455.35 184.36 455.35 178.85C455.35 172.49 459.08 168.99 465.9 168.99C470.35 168.99 473.5 170.46 475.24 173.28C475.5 173.71 475.96 173.97 476.52 173.97C477.31 173.97 477.96 173.31 477.96 172.56C477.96 172.3 477.89 172.04 477.73 171.81C475.24 168.01 470.49 166.47 465.87 166.47C457.39 166.47 452.21 171.03 452.21 178.49C452.21 185.11 456.63 190.42 465.91 190.42C471.19 190.42 474.98 188.85 477.54 185.67C477.93 185.15 478.26 184.36 478.26 184.23C478.26 183.44 477.6 182.75 476.75 182.75H476.74ZM485.74 168.47V188.52C485.74 189.34 486.46 189.99 487.28 189.99C488.1 189.99 488.82 189.34 488.82 188.52V179.84H498.06L505.36 189.41C505.65 189.77 506.11 190 506.57 190C507.39 190 508.11 189.35 508.11 188.53C508.11 188.27 508.01 187.94 507.78 187.65L501.65 179.79C504.57 179.59 509.05 178.18 509.05 173.47C509.05 169.21 505.81 167.05 499.58 167.05H487.23C486.31 167.05 485.72 167.61 485.72 168.49L485.74 168.47ZM498.94 177.22H488.82V169.65H498.94C503.1 169.65 506.12 170.21 506.12 173.42C506.12 176.63 503.11 177.22 498.94 177.22ZM541.69 180.46V168.37C541.69 167.58 540.97 166.93 540.15 166.93C539.33 166.93 538.61 167.59 538.61 168.37V180.46C538.61 185.37 535.43 187.93 529.34 187.93C523.25 187.93 520.07 185.37 520.07 180.46V168.37C520.07 167.58 519.35 166.93 518.53 166.93C517.71 166.93 516.99 167.59 516.99 168.37V180.46C516.99 188.72 523.8 190.42 529.34 190.42C534.88 190.42 541.69 188.71 541.69 180.46ZM550.68 168.37V188.52C550.68 189.34 551.4 189.99 552.22 189.99C553.04 189.99 553.76 189.34 553.76 188.52V168.37C553.76 167.58 553.04 166.93 552.22 166.93C551.4 166.93 550.68 167.59 550.68 168.37ZM561.27 185.11C561.27 185.47 561.4 185.8 561.7 186.13C563.8 188.16 566.91 190.42 573.56 190.42C581.69 190.42 585.62 187.21 585.62 183.37C585.62 173.15 564.85 179.64 564.85 172.92C564.85 170.37 567.7 168.99 572.91 168.99C577.4 168.99 579.82 170.33 581.3 171.58C581.69 171.94 581.96 172.4 582.61 172.5C582.71 172.53 582.81 172.53 582.9 172.53C583.72 172.53 584.37 171.94 584.37 171.15C584.37 170.76 584.21 170.4 583.94 170.13C581.91 168.2 578.27 166.46 572.96 166.46C565.69 166.46 561.69 168.89 561.69 173.34C561.69 182.64 582.46 176.62 582.46 183.37C582.46 186.84 577.55 187.79 573.88 187.79C568.01 187.79 565.46 185.89 563.92 184.18C563.66 183.88 563.23 183.69 562.77 183.69C561.95 183.69 561.26 184.31 561.26 185.1L561.27 185.11ZM593.11 168.47V188.42C593.11 189.34 593.7 189.86 594.62 189.86H613.69C614.44 189.86 615.06 189.27 615.06 188.55C615.06 187.83 614.44 187.24 613.69 187.24H596.2V179.31H610.29C611.04 179.31 611.67 178.72 611.67 178C611.67 177.28 611.05 176.69 610.29 176.69H596.2V169.65H613.3C614.05 169.65 614.67 169.06 614.67 168.34C614.67 167.62 614.05 167.03 613.3 167.03H594.63C593.71 167.03 593.12 167.59 593.12 168.47H593.11ZM619.84 185.11C619.84 185.47 619.97 185.8 620.27 186.13C622.37 188.16 625.48 190.42 632.13 190.42C640.26 190.42 644.19 187.21 644.19 183.37C644.19 173.15 623.42 179.64 623.42 172.92C623.42 170.37 626.27 168.99 631.48 168.99C635.97 168.99 638.39 170.33 639.87 171.58C640.27 171.94 640.53 172.4 641.18 172.5C641.28 172.53 641.38 172.53 641.48 172.53C642.3 172.53 642.95 171.94 642.95 171.15C642.95 170.76 642.79 170.4 642.53 170.13C640.5 168.2 636.86 166.46 631.55 166.46C624.28 166.46 620.28 168.89 620.28 173.34C620.28 182.64 641.05 176.62 641.05 183.37C641.05 186.84 636.14 187.79 632.47 187.79C626.6 187.79 624.05 185.89 622.51 184.18C622.25 183.88 621.82 183.69 621.36 183.69C620.54 183.69 619.85 184.31 619.85 185.1L619.84 185.11Z" fill="#7B907E"/>
<path d="M253.78 168.37V188.42C253.78 189.34 254.37 189.86 255.29 189.86H274.42C275.17 189.86 275.8 189.27 275.8 188.55C275.8 187.83 275.18 187.24 274.42 187.24H256.86V168.37C256.86 167.58 256.14 166.93 255.32 166.93C254.5 166.93 253.78 167.59 253.78 168.37ZM305.49 180.46V168.37C305.49 167.58 304.77 166.93 303.95 166.93C303.13 166.93 302.41 167.59 302.41 168.37V180.46C302.41 185.37 299.23 187.93 293.14 187.93C287.05 187.93 283.87 185.37 283.87 180.46V168.37C283.87 167.58 283.15 166.93 282.33 166.93C281.51 166.93 280.79 167.59 280.79 168.37V180.46C280.79 188.72 287.6 190.42 293.14 190.42C298.68 190.42 305.49 188.71 305.49 180.46ZM313.36 169.32L321.85 178.03L312.45 187.53C312.16 187.86 312.02 188.19 312.02 188.55C312.02 189.37 312.71 189.99 313.53 189.99C313.99 189.99 314.38 189.83 314.64 189.5L323.94 180.06L333.08 189.5C333.37 189.83 333.74 189.99 334.16 189.99C334.98 189.99 335.67 189.37 335.67 188.55C335.67 188.16 335.54 187.86 335.28 187.6L325.94 178L334.49 169.32C334.75 169.09 334.88 168.73 334.88 168.34C334.88 167.56 334.19 166.93 333.37 166.93C332.91 166.93 332.55 167.09 332.29 167.39L323.87 176.01L315.55 167.39C315.26 167.1 314.89 166.93 314.44 166.93C313.65 166.93 312.97 167.55 312.97 168.34C312.97 168.74 313.1 169.09 313.36 169.32ZM366.94 180.46V168.37C366.94 167.58 366.22 166.93 365.4 166.93C364.58 166.93 363.86 167.59 363.86 168.37V180.46C363.86 185.37 360.68 187.93 354.59 187.93C348.5 187.93 345.32 185.37 345.32 180.46V168.37C345.32 167.58 344.6 166.93 343.78 166.93C342.96 166.93 342.24 167.59 342.24 168.37V180.46C342.24 188.72 349.05 190.42 354.59 190.42C360.13 190.42 366.94 188.71 366.94 180.46ZM375.94 168.47V188.52C375.94 189.34 376.66 189.99 377.48 189.99C378.3 189.99 379.02 189.34 379.02 188.52V179.84H388.26L395.56 189.41C395.86 189.77 396.31 190 396.77 190C397.59 190 398.31 189.35 398.31 188.53C398.31 188.27 398.21 187.94 397.98 187.65L391.85 179.79C394.77 179.59 399.25 178.18 399.25 173.47C399.25 169.21 396.01 167.05 389.78 167.05H377.43C376.51 167.05 375.92 167.61 375.92 168.49L375.94 168.47ZM389.14 177.22H379.01V169.65H389.14C393.3 169.65 396.31 170.21 396.31 173.42C396.31 176.63 393.3 177.22 389.14 177.22ZM406.01 169.32L416.33 180.66V188.52C416.33 189.34 417.05 189.99 417.87 189.99C418.69 189.99 419.41 189.34 419.41 188.52V180.66L429.73 169.32C429.99 169.03 430.12 168.66 430.12 168.34C430.12 167.56 429.4 166.93 428.58 166.93C428.06 166.93 427.66 167.09 427.43 167.42L417.86 178.07L408.29 167.42C408.06 167.09 407.67 166.93 407.14 166.93C406.32 166.93 405.6 167.55 405.6 168.34C405.6 168.67 405.73 169.03 405.99 169.32H406.01ZM476.74 182.75C476.25 182.75 475.79 183.01 475.46 183.41C473.4 186.36 470.28 187.8 466.16 187.8C459.48 187.8 455.35 184.36 455.35 178.85C455.35 172.49 459.08 168.99 465.9 168.99C470.35 168.99 473.5 170.46 475.24 173.28C475.5 173.71 475.96 173.97 476.52 173.97C477.31 173.97 477.96 173.31 477.96 172.56C477.96 172.3 477.89 172.04 477.73 171.81C475.24 168.01 470.49 166.47 465.87 166.47C457.39 166.47 452.21 171.03 452.21 178.49C452.21 185.11 456.63 190.42 465.91 190.42C471.19 190.42 474.98 188.85 477.54 185.67C477.93 185.15 478.26 184.36 478.26 184.23C478.26 183.44 477.6 182.75 476.75 182.75H476.74ZM485.74 168.47V188.52C485.74 189.34 486.46 189.99 487.28 189.99C488.1 189.99 488.82 189.34 488.82 188.52V179.84H498.06L505.36 189.41C505.65 189.77 506.11 190 506.57 190C507.39 190 508.11 189.35 508.11 188.53C508.11 188.27 508.01 187.94 507.78 187.65L501.65 179.79C504.57 179.59 509.05 178.18 509.05 173.47C509.05 169.21 505.81 167.05 499.58 167.05H487.23C486.31 167.05 485.72 167.61 485.72 168.49L485.74 168.47ZM498.94 177.22H488.82V169.65H498.94C503.1 169.65 506.12 170.21 506.12 173.42C506.12 176.63 503.11 177.22 498.94 177.22ZM541.69 180.46V168.37C541.69 167.58 540.97 166.93 540.15 166.93C539.33 166.93 538.61 167.59 538.61 168.37V180.46C538.61 185.37 535.43 187.93 529.34 187.93C523.25 187.93 520.07 185.37 520.07 180.46V168.37C520.07 167.58 519.35 166.93 518.53 166.93C517.71 166.93 516.99 167.59 516.99 168.37V180.46C516.99 188.72 523.8 190.42 529.34 190.42C534.88 190.42 541.69 188.71 541.69 180.46ZM550.68 168.37V188.52C550.68 189.34 551.4 189.99 552.22 189.99C553.04 189.99 553.76 189.34 553.76 188.52V168.37C553.76 167.58 553.04 166.93 552.22 166.93C551.4 166.93 550.68 167.59 550.68 168.37ZM561.27 185.11C561.27 185.47 561.4 185.8 561.7 186.13C563.8 188.16 566.91 190.42 573.56 190.42C581.69 190.42 585.62 187.21 585.62 183.37C585.62 173.15 564.85 179.64 564.85 172.92C564.85 170.37 567.7 168.99 572.91 168.99C577.4 168.99 579.82 170.33 581.3 171.58C581.69 171.94 581.96 172.4 582.61 172.5C582.71 172.53 582.81 172.53 582.9 172.53C583.72 172.53 584.37 171.94 584.37 171.15C584.37 170.76 584.21 170.4 583.94 170.13C581.91 168.2 578.27 166.46 572.96 166.46C565.69 166.46 561.69 168.89 561.69 173.34C561.69 182.64 582.46 176.62 582.46 183.37C582.46 186.84 577.55 187.79 573.88 187.79C568.01 187.79 565.46 185.89 563.92 184.18C563.66 183.88 563.23 183.69 562.77 183.69C561.95 183.69 561.26 184.31 561.26 185.1L561.27 185.11ZM593.11 168.47V188.42C593.11 189.34 593.7 189.86 594.62 189.86H613.69C614.44 189.86 615.06 189.27 615.06 188.55C615.06 187.83 614.44 187.24 613.69 187.24H596.2V179.31H610.29C611.04 179.31 611.67 178.72 611.67 178C611.67 177.28 611.05 176.69 610.29 176.69H596.2V169.65H613.3C614.05 169.65 614.67 169.06 614.67 168.34C614.67 167.62 614.05 167.03 613.3 167.03H594.63C593.71 167.03 593.12 167.59 593.12 168.47H593.11ZM619.84 185.11C619.84 185.47 619.97 185.8 620.27 186.13C622.37 188.16 625.48 190.42 632.13 190.42C640.26 190.42 644.19 187.21 644.19 183.37C644.19 173.15 623.42 179.64 623.42 172.92C623.42 170.37 626.27 168.99 631.48 168.99C635.97 168.99 638.39 170.33 639.87 171.58C640.27 171.94 640.53 172.4 641.18 172.5C641.28 172.53 641.38 172.53 641.48 172.53C642.3 172.53 642.95 171.94 642.95 171.15C642.95 170.76 642.79 170.4 642.53 170.13C640.5 168.2 636.86 166.46 631.55 166.46C624.28 166.46 620.28 168.89 620.28 173.34C620.28 182.64 641.05 176.62 641.05 183.37C641.05 186.84 636.14 187.79 632.47 187.79C626.6 187.79 624.05 185.89 622.51 184.18C622.25 183.88 621.82 183.69 621.36 183.69C620.54 183.69 619.85 184.31 619.85 185.1L619.84 185.11Z" stroke="#7B907E" stroke-width="2" stroke-linejoin="round" mask="url(#path-5-outside-2_1132_9049)"/>
</g>
<defs>
<clipPath id="clip0_1132_9049">
<rect width="693.97" height="275" fill="white"/>
</clipPath>
</defs>
</svg>