<svg width="105" height="128" viewBox="0 0 105 128" fill="none" xmlns="http://www.w3.org/2000/svg">
<g clip-path="url(#clip0_1109_11381)">
<path d="M0.0697632 0.113647V127.941H104.926V0.113647H0.0697632Z" fill="#7B907E"/>
<path d="M15.3919 98.1463V104.734C15.3919 105.004 15.6286 105.218 15.8987 105.218C16.1688 105.218 16.4055 105.003 16.4055 104.734V101.882H19.4432L21.8452 105.025C21.9423 105.144 22.0925 105.22 22.2442 105.22C22.5143 105.22 22.751 105.004 22.751 104.736C22.751 104.649 22.7191 104.542 22.6433 104.446L20.6298 101.862C21.5887 101.797 23.0636 101.334 23.0636 99.7842C23.0636 98.3844 21.9969 97.6746 19.9515 97.6746H15.8911C15.5892 97.6746 15.3949 97.8581 15.3949 98.1478H15.3919V98.1463ZM19.7315 101.02H16.404V98.533H19.7315C21.1001 98.533 22.091 98.7165 22.091 99.7705C22.091 100.825 21.1001 101.019 19.7315 101.019V101.02ZM25.6522 98.1144V104.736C25.6522 105.006 25.8889 105.22 26.159 105.22C26.429 105.22 26.6658 105.004 26.6658 104.736V98.1144C26.6658 97.8566 26.429 97.6412 26.159 97.6412C25.8889 97.6412 25.6522 97.8566 25.6522 98.1144ZM28.6413 98.1023C28.6413 98.1781 28.6626 98.2539 28.696 98.3282L32.2283 104.831C32.3573 105.068 32.6168 105.218 32.9066 105.218C33.1964 105.218 33.4559 105.068 33.5848 104.831L37.1278 98.3176C37.1597 98.263 37.1703 98.1887 37.1703 98.1023C37.1703 97.8444 36.9442 97.6397 36.6741 97.6397C36.4799 97.6397 36.3191 97.7368 36.2326 97.8869L32.9051 104.099L29.5881 97.8975C29.5017 97.7353 29.3302 97.6397 29.136 97.6397C28.8674 97.6397 28.6398 97.8444 28.6398 98.1023H28.6413ZM39.1732 98.1463V104.702C39.1732 105.004 39.3674 105.176 39.6694 105.176H45.9375C46.1848 105.176 46.3897 104.982 46.3897 104.745C46.3897 104.508 46.1848 104.314 45.9375 104.314H40.1853V101.709H44.8177C45.065 101.709 45.2699 101.515 45.2699 101.278C45.2699 101.041 45.065 100.847 44.8177 100.847H40.1853V98.533H45.807C46.0543 98.533 46.2592 98.3389 46.2592 98.1023C46.2592 97.8657 46.0543 97.6716 45.807 97.6716H39.6678C39.3659 97.6716 39.1717 97.8551 39.1717 98.1447H39.1732V98.1463ZM48.3698 98.1463V104.734C48.3698 105.004 48.6065 105.218 48.8766 105.218C49.1467 105.218 49.3834 105.003 49.3834 104.734V101.882H52.4211L54.823 105.025C54.9202 105.144 55.0704 105.22 55.2206 105.22C55.4907 105.22 55.7274 105.004 55.7274 104.736C55.7274 104.649 55.6955 104.542 55.6197 104.446L53.6061 101.862C54.5651 101.797 56.04 101.334 56.04 99.7842C56.04 98.3844 54.9733 97.6746 52.9279 97.6746H48.8675C48.5655 97.6746 48.3713 97.8581 48.3713 98.1478L48.3698 98.1463ZM52.7109 101.02H49.3834V98.533H52.7109C54.0796 98.533 55.0704 98.7165 55.0704 99.7705C55.0704 100.825 54.0796 101.019 52.7109 101.019V101.02ZM58.1051 103.615C58.1051 103.733 58.1475 103.841 58.2446 103.949C58.9335 104.616 59.9577 105.359 62.1442 105.359C64.8147 105.359 66.1075 104.304 66.1075 103.045C66.1075 99.6856 59.2795 101.818 59.2795 99.6113C59.2795 98.7711 60.2157 98.3191 61.9288 98.3191C63.4051 98.3191 64.2017 98.7605 64.6858 99.17C64.8147 99.2882 64.9012 99.4399 65.1167 99.4718C65.1486 99.4824 65.1819 99.4824 65.2138 99.4824C65.4839 99.4824 65.6978 99.2882 65.6978 99.0304C65.6978 98.9015 65.6432 98.7832 65.5582 98.6968C64.8906 98.0613 63.6949 97.4911 61.95 97.4911C59.5587 97.4911 58.2446 98.2873 58.2446 99.7523C58.2446 102.81 65.0742 100.829 65.0742 103.046C65.0742 104.187 63.4582 104.499 62.2519 104.499C60.3234 104.499 59.4828 103.874 58.9775 103.315C58.891 103.218 58.7514 103.153 58.6012 103.153C58.3311 103.153 58.1051 103.357 58.1051 103.615ZM68.4579 98.1144V104.736C68.4579 105.006 68.6946 105.22 68.9647 105.22C69.2348 105.22 69.4715 105.004 69.4715 104.736V98.1144C69.4715 97.8566 69.2348 97.6412 68.9647 97.6412C68.6946 97.6412 68.4579 97.8566 68.4579 98.1144ZM72.3271 98.1463V104.702C72.3271 105.004 72.5213 105.176 72.8233 105.176H75.9247C77.9928 105.176 80.4494 104.411 80.4494 101.354C80.4494 99.0608 78.8653 97.6716 76.2267 97.6716H72.8233C72.5213 97.6716 72.3271 97.8551 72.3271 98.1447V98.1463ZM76.0749 104.314H73.3392V98.533H76.2251C77.8092 98.533 79.4131 99.1684 79.4131 101.333C79.4131 104.217 76.8503 104.314 76.0749 104.314ZM82.5221 98.1463V104.702C82.5221 105.004 82.7163 105.176 83.0168 105.176H89.2849C89.5322 105.176 89.7371 104.982 89.7371 104.745C89.7371 104.508 89.5322 104.314 89.2849 104.314H83.5342V101.709H88.1651C88.4124 101.709 88.6173 101.515 88.6173 101.278C88.6173 101.041 88.4124 100.847 88.1651 100.847H83.5342V98.533H89.1559C89.4033 98.533 89.6081 98.3389 89.6081 98.1023C89.6081 97.8657 89.4033 97.6716 89.1559 97.6716H83.0168C82.7148 97.6716 82.5221 97.8551 82.5221 98.1447V98.1463Z" fill="black"/>
<path d="M22.6614 110.263V113.304C22.6614 113.444 22.751 113.523 22.8906 113.523H25.7932C25.907 113.523 26.0026 113.433 26.0026 113.324C26.0026 113.215 25.9085 113.125 25.7932 113.125H23.1288V110.263C23.1288 110.144 23.0195 110.045 22.8951 110.045C22.7707 110.045 22.6614 110.145 22.6614 110.263ZM30.5076 112.097V110.263C30.5076 110.144 30.3984 110.045 30.2739 110.045C30.1495 110.045 30.0403 110.145 30.0403 110.263V112.097C30.0403 112.842 29.5578 113.23 28.6337 113.23C27.7096 113.23 27.2271 112.842 27.2271 112.097V110.263C27.2271 110.144 27.1179 110.045 26.9934 110.045C26.869 110.045 26.7598 110.145 26.7598 110.263V112.097C26.7598 113.35 27.7931 113.607 28.6337 113.607C29.4743 113.607 30.5076 113.348 30.5076 112.097ZM31.7018 110.407L32.99 111.728L31.5637 113.169C31.5197 113.219 31.4984 113.269 31.4984 113.324C31.4984 113.448 31.6031 113.542 31.7276 113.542C31.7973 113.542 31.8565 113.518 31.896 113.468L33.3071 112.036L34.694 113.468C34.738 113.518 34.7941 113.542 34.8578 113.542C34.9822 113.542 35.0869 113.448 35.0869 113.324C35.0869 113.265 35.0672 113.219 35.0278 113.18L33.6106 111.724L34.9079 110.407C34.9473 110.373 34.9671 110.318 34.9671 110.259C34.9671 110.141 34.8624 110.045 34.738 110.045C34.6682 110.045 34.6135 110.069 34.5741 110.115L33.2965 111.422L32.0341 110.115C31.99 110.071 31.9339 110.045 31.8656 110.045C31.7458 110.045 31.6426 110.139 31.6426 110.259C31.6426 110.32 31.6623 110.373 31.7018 110.407ZM39.8317 112.097V110.263C39.8317 110.144 39.7224 110.045 39.598 110.045C39.4736 110.045 39.3643 110.145 39.3643 110.263V112.097C39.3643 112.842 38.8818 113.23 37.9578 113.23C37.0337 113.23 36.5512 112.842 36.5512 112.097V110.263C36.5512 110.144 36.4419 110.045 36.3175 110.045C36.1931 110.045 36.0838 110.145 36.0838 110.263V112.097C36.0838 113.35 37.1171 113.607 37.9578 113.607C38.7984 113.607 39.8317 113.348 39.8317 112.097ZM41.1973 110.279V113.319C41.1973 113.444 41.3065 113.542 41.4309 113.542C41.5554 113.542 41.6646 113.444 41.6646 113.319V112.003H43.0666L44.1743 113.454C44.2198 113.509 44.2881 113.544 44.3579 113.544C44.4823 113.544 44.5916 113.445 44.5916 113.321C44.5916 113.281 44.5764 113.231 44.5415 113.187L43.6114 111.995C44.0544 111.965 44.7342 111.751 44.7342 111.037C44.7342 110.391 44.2426 110.063 43.2973 110.063H41.4234C41.2838 110.063 41.1942 110.148 41.1942 110.282L41.1973 110.279ZM43.2002 111.606H41.6631V110.458H43.2002C43.8314 110.458 44.2881 110.542 44.2881 111.029C44.2881 111.516 43.8314 111.606 43.2002 111.606ZM45.7599 110.407L47.3258 112.127V113.319C47.3258 113.444 47.4351 113.542 47.5595 113.542C47.6839 113.542 47.7932 113.444 47.7932 113.319V112.127L49.3591 110.407C49.3985 110.364 49.4182 110.307 49.4182 110.259C49.4182 110.141 49.309 110.045 49.1846 110.045C49.1057 110.045 49.045 110.069 49.0101 110.119L47.558 111.735L46.1059 110.119C46.071 110.069 46.0118 110.045 45.9314 110.045C45.807 110.045 45.6977 110.139 45.6977 110.259C45.6977 110.309 45.7174 110.364 45.7569 110.407H45.7599ZM56.4921 112.444C56.4177 112.444 56.3479 112.484 56.2979 112.544C55.9853 112.992 55.5119 113.21 54.8867 113.21C53.8731 113.21 53.2465 112.688 53.2465 111.853C53.2465 110.888 53.8125 110.357 54.8473 110.357C55.5225 110.357 56.0005 110.58 56.2645 111.008C56.3039 111.073 56.3737 111.113 56.4587 111.113C56.5786 111.113 56.6772 111.013 56.6772 110.899C56.6772 110.859 56.6666 110.82 56.6423 110.785C56.2645 110.209 55.5437 109.975 54.8427 109.975C53.556 109.975 52.77 110.667 52.77 111.798C52.77 112.802 53.4407 113.607 54.8488 113.607C55.65 113.607 56.225 113.369 56.6135 112.887C56.6726 112.808 56.7227 112.688 56.7227 112.669C56.7227 112.549 56.6226 112.444 56.4936 112.444H56.4921ZM57.8577 110.279V113.319C57.8577 113.444 57.9669 113.542 58.0914 113.542C58.2158 113.542 58.325 113.444 58.325 113.319V112.003H59.727L60.8347 113.454C60.8787 113.509 60.9485 113.544 61.0183 113.544C61.1427 113.544 61.252 113.445 61.252 113.321C61.252 113.281 61.2368 113.231 61.2019 113.187L60.2718 111.995C60.7148 111.965 61.3946 111.751 61.3946 111.037C61.3946 110.391 60.903 110.063 59.9577 110.063H58.0838C57.9442 110.063 57.8546 110.148 57.8546 110.282L57.8577 110.279ZM59.8606 111.606H58.325V110.458H59.8606C60.4918 110.458 60.95 110.542 60.95 111.029C60.95 111.516 60.4933 111.606 59.8606 111.606ZM66.3472 112.097V110.263C66.3472 110.144 66.238 110.045 66.1135 110.045C65.9891 110.045 65.8799 110.145 65.8799 110.263V112.097C65.8799 112.842 65.3974 113.23 64.4733 113.23C63.5492 113.23 63.0667 112.842 63.0667 112.097V110.263C63.0667 110.144 62.9575 110.045 62.833 110.045C62.7086 110.045 62.5994 110.145 62.5994 110.263V112.097C62.5994 113.35 63.6327 113.607 64.4733 113.607C65.3139 113.607 66.3472 113.348 66.3472 112.097ZM67.7113 110.263V113.319C67.7113 113.444 67.8205 113.542 67.945 113.542C68.0694 113.542 68.1786 113.444 68.1786 113.319V110.263C68.1786 110.144 68.0694 110.045 67.945 110.045C67.8205 110.045 67.7113 110.145 67.7113 110.263ZM69.3182 112.802C69.3182 112.857 69.3379 112.907 69.3834 112.957C69.702 113.265 70.1739 113.607 71.183 113.607C72.4166 113.607 73.0129 113.121 73.0129 112.538C73.0129 110.988 69.8614 111.973 69.8614 110.953C69.8614 110.567 70.2938 110.357 71.0843 110.357C71.7656 110.357 72.1328 110.561 72.3574 110.75C72.4166 110.805 72.4575 110.875 72.5562 110.89C72.5713 110.894 72.5865 110.894 72.6002 110.894C72.7246 110.894 72.8232 110.805 72.8232 110.685C72.8232 110.626 72.7989 110.571 72.758 110.53C72.45 110.238 71.8976 109.974 71.0919 109.974C69.9888 109.974 69.3819 110.342 69.3819 111.017C69.3819 112.428 72.5334 111.515 72.5334 112.538C72.5334 113.065 71.7884 113.209 71.2315 113.209C70.3409 113.209 69.9539 112.92 69.7203 112.661C69.6808 112.616 69.6156 112.587 69.5458 112.587C69.4213 112.587 69.3166 112.681 69.3166 112.801L69.3182 112.802ZM74.1494 110.279V113.304C74.1494 113.444 74.2389 113.523 74.3785 113.523H77.2721C77.3859 113.523 77.4799 113.433 77.4799 113.324C77.4799 113.215 77.3859 113.125 77.2721 113.125H74.6182V111.923H76.7562C76.87 111.923 76.9656 111.833 76.9656 111.724C76.9656 111.615 76.8715 111.525 76.7562 111.525H74.6182V110.458H77.2129C77.3267 110.458 77.4208 110.368 77.4208 110.259C77.4208 110.15 77.3267 110.06 77.2129 110.06H74.38C74.2404 110.06 74.1509 110.145 74.1509 110.279H74.1494ZM78.2052 112.802C78.2052 112.857 78.225 112.907 78.2705 112.957C78.5891 113.265 79.061 113.607 80.07 113.607C81.3036 113.607 81.9 113.121 81.9 112.538C81.9 110.988 78.7484 111.973 78.7484 110.953C78.7484 110.567 79.1809 110.357 79.9714 110.357C80.6527 110.357 81.0199 110.561 81.2445 110.75C81.3052 110.805 81.3446 110.875 81.4432 110.89C81.4584 110.894 81.4736 110.894 81.4888 110.894C81.6132 110.894 81.7118 110.805 81.7118 110.685C81.7118 110.626 81.6875 110.571 81.6481 110.53C81.34 110.238 80.7877 109.974 79.982 109.974C78.8789 109.974 78.272 110.342 78.272 111.017C78.272 112.428 81.4235 111.515 81.4235 112.538C81.4235 113.065 80.6785 113.209 80.1216 113.209C79.2309 113.209 78.844 112.92 78.6104 112.661C78.5709 112.616 78.5057 112.587 78.4359 112.587C78.3114 112.587 78.2067 112.681 78.2067 112.801L78.2052 112.802Z" fill="black"/>
<path d="M49.1846 65.2617C49.1148 65.2617 49.0435 65.245 48.9767 65.2116C48.4442 64.9356 48.4578 64.053 48.5337 62.3847C48.5564 61.8858 48.5868 61.1927 48.558 60.7908C48.2257 61.0562 47.7052 61.5916 47.3304 61.9768C46.1606 63.1809 45.5157 63.8437 44.9543 63.4691C44.3883 63.0915 44.7813 62.183 45.4322 60.6801C45.6416 60.1948 45.9345 59.5214 46.0528 59.1165C45.6507 59.2484 44.9846 59.5624 44.5036 59.7868C43.0257 60.4814 42.1335 60.9015 41.7375 60.3525C41.343 59.805 41.9833 59.1332 43.1471 57.9138C43.5143 57.5301 44.0226 56.9963 44.276 56.6551C43.8542 56.6429 43.1274 56.7112 42.6024 56.7597C40.9713 56.9114 39.9865 57.0024 39.7983 56.3502C39.6132 55.7042 40.4387 55.2886 41.9393 54.5349C42.4173 54.2952 43.0788 53.9616 43.4339 53.725C43.0424 53.5749 42.3399 53.3974 41.8331 53.27C40.2384 52.8666 39.2749 52.624 39.3158 51.9445C39.3568 51.2788 40.2672 51.1589 41.9226 50.9451C42.4294 50.8784 43.2002 50.7783 43.622 50.6691C43.2913 50.3855 42.6403 49.9593 42.2124 49.6788C40.8165 48.7643 40.0487 48.2592 40.3036 47.642C40.5631 47.0126 41.5357 47.2128 43.1471 47.5464C43.6585 47.6526 44.3686 47.7982 44.7874 47.8346C44.5719 47.4676 44.1213 46.8791 43.7965 46.4545C42.7769 45.1229 42.2155 44.3889 42.6631 43.8884C43.1168 43.3834 43.9619 43.8945 45.364 44.7423C45.8146 45.0152 46.4398 45.3929 46.8236 45.5658C46.7447 45.1502 46.5202 44.448 46.3578 43.9415C45.8434 42.337 45.5597 41.4528 46.1545 41.1313C46.7493 40.8098 47.335 41.5332 48.3956 42.845C48.7294 43.2575 49.1937 43.8308 49.4972 44.125C49.567 43.7095 49.5989 42.977 49.6216 42.4492C49.6929 40.8128 49.7354 39.824 50.4091 39.7315C51.0783 39.6374 51.3681 40.5155 51.8961 42.1095C52.0645 42.619 52.2997 43.3273 52.4818 43.711C52.6912 43.35 52.978 42.6858 53.1843 42.2065C53.6547 41.1161 53.9642 40.4321 54.2935 40.1243C54.4559 39.9711 54.6865 39.9286 54.8959 40.0105C55.1053 40.0924 55.2479 40.2911 55.2616 40.514C55.5362 45.1806 58.9017 49.1677 63.4461 50.2111C63.6889 50.2672 63.8406 50.5098 63.786 50.7525C63.7314 50.9952 63.4871 51.1468 63.2443 51.0922C58.6361 50.0352 55.1447 46.1891 54.4619 41.5605C54.3087 41.8835 54.1494 42.252 54.0143 42.566C53.3361 44.1387 53.0144 44.8302 52.4378 44.8075C51.8521 44.7817 51.5866 44.0492 51.0388 42.3946C50.9144 42.0185 50.7535 41.5332 50.6064 41.1555C50.5654 41.5665 50.5426 42.0882 50.5259 42.4901C50.4516 44.216 50.3955 44.988 49.8447 45.1699C49.2908 45.3519 48.7856 44.7635 47.6961 43.4152C47.4412 43.0998 47.1104 42.6918 46.8343 42.3855C46.939 42.7844 47.0983 43.2833 47.2212 43.6685C47.7522 45.3231 47.9677 46.0693 47.5095 46.4317C47.0543 46.7927 46.3806 46.412 44.8997 45.5172C44.5476 45.3049 44.0909 45.0289 43.7222 44.8333C43.9528 45.173 44.2715 45.5885 44.5158 45.9085C45.5764 47.2947 46.0331 47.9286 45.7205 48.4261C45.414 48.9159 44.6538 48.7825 42.9666 48.4336C42.5599 48.3502 42.0288 48.2395 41.6131 48.1789C41.9424 48.4215 42.3763 48.7066 42.7116 48.9265C44.1425 49.8653 44.8238 50.3415 44.6933 50.9163C44.5613 51.4926 43.7389 51.623 42.0425 51.8444C41.645 51.896 41.1291 51.9627 40.727 52.0386C41.1275 52.166 41.6525 52.2979 42.0562 52.3995C43.7267 52.8211 44.4687 53.0319 44.5309 53.6082C44.5947 54.1921 43.9073 54.5637 42.3475 55.3478C41.9879 55.5282 41.519 55.7633 41.164 55.968C41.5812 55.9529 42.1123 55.9043 42.522 55.8664C44.2442 55.7072 45.0165 55.6587 45.2699 56.1819C45.5233 56.7081 45.0043 57.286 43.8041 58.5432C43.5249 58.8359 43.1638 59.2135 42.8968 59.5275C43.2806 59.3728 43.7556 59.1483 44.1228 58.977C45.6917 58.2384 46.4033 57.9305 46.8206 58.3354C47.2379 58.7388 46.9511 59.4577 46.2637 61.0441C46.1044 61.4141 45.8965 61.8918 45.7539 62.2786C46.0528 62.0025 46.4094 61.6355 46.6856 61.3519C47.9009 60.1023 48.4593 59.5593 48.998 59.7914C49.526 60.0189 49.5154 60.765 49.4395 62.4302C49.4092 63.0915 49.3606 64.1819 49.4729 64.4655C49.6368 64.5974 49.6899 64.831 49.5898 65.0251C49.5093 65.1798 49.3515 65.2693 49.1877 65.2693L49.1846 65.2617Z" fill="black"/>
<path d="M53.4392 49.5407C53.7169 50.0199 53.5515 50.6341 53.072 50.9102C52.5925 51.1877 51.9795 51.0224 51.7019 50.5431C51.4242 50.0639 51.5896 49.4497 52.0691 49.1737C52.5485 48.8961 53.1631 49.0614 53.4392 49.5407Z" fill="black"/>
<path d="M49.9797 88.758C46.9859 88.758 44.5294 86.3466 44.4854 83.3437C44.4596 81.5997 45.238 79.9875 46.6203 78.9168C48.1786 77.6277 49.2741 77.0727 49.7414 76.8346L49.7612 76.8239C49.8932 76.7572 50.0434 76.7496 50.1845 76.8042C50.535 76.9422 50.7247 77.4124 51.2224 78.7545C51.4439 79.3521 51.8172 80.3591 52.0948 80.8353C52.1995 80.3985 52.2754 79.6145 52.3255 79.0973C52.4878 77.4351 52.5986 76.5601 53.1828 76.3796C53.7715 76.1991 54.3602 76.8634 55.4345 78.1555C55.7486 78.5331 56.2159 79.0943 56.5437 79.4067C56.4815 78.9563 56.2994 78.248 56.1765 77.7703C55.7592 76.146 55.5635 75.2801 56.0536 74.91C56.5437 74.5415 57.3206 74.9646 58.7666 75.8093C59.1929 76.0581 59.8257 76.4281 60.2445 76.6116C60.032 76.2112 59.6239 75.6137 59.3477 75.2103C58.3963 73.8196 57.9154 73.0704 58.2522 72.5532C58.5845 72.0421 59.4084 72.165 61.0927 72.4698C61.5828 72.5578 62.3126 72.6897 62.7708 72.7185C62.4446 72.4243 61.8756 72.0194 61.4599 71.7221C60.0791 70.7364 59.3659 70.1934 59.5055 69.5868C59.6451 68.9801 60.5237 68.8027 62.1958 68.5176C62.6995 68.4311 63.3884 68.3144 63.8117 68.1915C63.3869 68.0171 62.6722 67.8169 62.1927 67.6835C60.5449 67.2224 59.7483 66.9752 59.6739 66.3701C59.5981 65.7574 60.3583 65.2933 61.821 64.4562C62.2443 64.2135 62.874 63.8541 63.2397 63.5856C62.783 63.569 62.0516 63.6251 61.56 63.6645C59.8909 63.7949 59.0063 63.8374 58.7271 63.2914C58.4479 62.7439 59.0002 62.0509 60.0851 60.7709C60.4038 60.3947 60.8772 59.8366 61.1291 59.459C60.6966 59.5985 60.032 59.8988 59.5844 60.102C58.0534 60.7951 57.2325 61.1364 56.7834 60.7178C56.3358 60.3007 56.618 59.4651 57.1976 57.8984C57.3691 57.4344 57.6255 56.7443 57.7333 56.3C57.3782 56.5775 56.8638 57.0825 56.5164 57.4222C55.3101 58.6052 54.6531 59.2103 54.0825 58.9691C53.5226 58.7326 53.4969 57.8742 53.4999 56.2484C53.4999 55.5553 53.5029 54.4073 53.3557 54.1434C53.1721 54.0114 53.1114 53.7597 53.2237 53.558C53.3451 53.3396 53.6198 53.2607 53.8383 53.382C54.383 53.6823 54.4073 54.6211 54.4042 56.2514C54.4042 56.8308 54.4012 57.6558 54.4771 58.041C54.826 57.8165 55.4724 57.1826 55.8851 56.7792C57.0277 55.6584 57.7833 54.9183 58.3781 55.3036C58.979 55.6933 58.6088 56.6958 58.0474 58.2139C57.8516 58.7432 57.5451 59.5712 57.4784 59.9792C57.8835 59.8852 58.6953 59.5166 59.2142 59.2816C60.6815 58.6173 61.6495 58.179 62.0789 58.7477C62.5083 59.3164 61.8195 60.1293 60.7771 61.3578C60.4099 61.7915 59.8348 62.4694 59.633 62.8319C60.0442 62.8789 60.9273 62.8107 61.4932 62.7667C63.1047 62.6408 64.1683 62.5589 64.3792 63.2414C64.5886 63.9193 63.6676 64.4455 62.2732 65.2418C61.7755 65.5254 60.9986 65.9697 60.6845 66.2442C61.0532 66.4277 61.8984 66.6643 62.4401 66.816C64.0044 67.2528 65.0378 67.5424 65.0013 68.2598C64.9649 68.9635 63.9255 69.1409 62.3536 69.4093C61.7785 69.5079 60.8772 69.6611 60.4918 69.8143C60.7725 70.1191 61.516 70.6514 61.9909 70.9911C63.2883 71.9178 64.1456 72.5305 63.8724 73.1796C63.5932 73.8423 62.5372 73.6512 60.9394 73.3631C60.3856 73.263 59.5237 73.1128 59.1095 73.1113C59.2719 73.4935 59.7786 74.2336 60.1018 74.7053C61.0077 76.0292 61.607 76.9043 61.123 77.4245C60.6359 77.9462 59.7149 77.4078 58.3205 76.5934C57.8304 76.3068 57.0656 75.8609 56.6742 75.7244C56.6984 76.1384 56.9185 76.9999 57.0611 77.5504C57.4617 79.111 57.7272 80.1422 57.0929 80.4668C56.4572 80.7913 55.7774 79.9739 54.7487 78.7379C54.3845 78.2996 53.814 77.6156 53.4908 77.3532C53.3724 77.7491 53.2875 78.6272 53.2328 79.1898C53.0765 80.8035 52.9719 81.8681 52.2587 81.953C51.5182 82.044 51.0858 80.9718 50.3833 79.073C50.2239 78.6438 50.0206 78.0948 49.8765 77.79C49.3454 78.0706 48.4259 78.6059 47.1923 79.6266C46.0255 80.529 45.376 81.8772 45.3973 83.3346C45.4337 85.8658 47.5322 87.895 50.0555 87.8586C50.9447 87.8465 51.8035 87.5796 52.5394 87.0867C52.7473 86.9487 53.028 87.0033 53.1661 87.211C53.3042 87.4188 53.2495 87.6994 53.0417 87.8374C52.1601 88.4258 51.1328 88.7458 50.0692 88.761H49.9888L49.9797 88.758Z" fill="black"/>
</g>
<defs>
<clipPath id="clip0_1109_11381">
<rect width="105" height="128" fill="white"/>
</clipPath>
</defs>
</svg>
